<svg data-v-2cb57da0="" version="1.0" xmlns="http://www.w3.org/2000/svg" xmlns:xlink="http://www.w3.org/1999/xlink"
  width="100%" height="100%" viewBox="0 0 340.000000 250.000000" preserveAspectRatio="xMidYMid meet"
  color-interpolation-filters="sRGB" style="margin: auto;">
  <rect data-v-2cb57da0="" x="0" y="0" width="100%" height="100%" fill="#22272E" fill-opacity="1" class="background">
  </rect>
  <rect data-v-2cb57da0="" x="0" y="0" width="100%" height="100%" fill="url(#watermark)" fill-opacity="1"
    class="watermarklayer"></rect>
  <g data-v-2cb57da0="" fill="#FFFFFF" class="newinitialsvg-g newinitialsvg"
    transform="translate(70.16332201007754,94.57665395736694)">
    <g class="tp-name" transform="translate(0,0)">
      <g transform="translate(0, 0)">
        <g data-gra="path-name" fill="#FFFFFF" transform="translate(0,3)">
          <g transform="scale(0.8599999999999999)">
            <path
              d="M11.52-38.88L11.52-38.88Q27.81-38.07 28.56-37.99L28.56-37.99Q30.14-37.57 31.03-36.52L31.03-36.52Q32.11-35.22 32.11-33.75L32.11-33.75Q31.97-30.19 31.86-30.19L31.86-30.19Q31.53-28.97 30.75-28.25L30.75-28.25Q29.42-26.86 27.61-26.86L27.61-26.86Q20.65-27.20 19.23-27.25L19.23-27.25Q18.73-27.25 18.34-26.61L18.34-26.61Q18.23-26.61 18.18-24.81L18.18-24.81L18.15-24.75Q18.15-24.00 18.98-23.67L18.98-23.67Q25.39-23.14 25.39-22.89L25.39-22.89Q26.81-22.37 27.72-20.70L27.72-20.70Q28.08-19.79 28.08-18.98L28.08-18.98L28.08-18.73Q27.83-15.96 27.64-15.96L27.64-15.96Q27.20-14.68 26.17-13.93L26.17-13.93Q24.98-13.02 23.48-13.02L23.48-13.02L19.04-13.38L18.98-13.38Q17.95-13.38 17.48-12.21L17.48-12.21Q17.40-12.21 17.09-3.97L17.09-3.97Q17.07-3.36 16.57-2.25L16.57-2.25Q15.04 0 12.88 0L12.88 0Q8.91-0.17 8.91-0.31L8.91-0.31Q8.08-0.47 6.91-1.53L6.91-1.53Q5.72-2.94 5.72-4.44L5.72-4.44Q5.72-4.88 7.24-34.99L7.24-34.99Q7.41-36.19 8.10-37.13L8.10-37.13Q9.60-38.88 11.52-38.88Z"
              transform="translate(-5.716698841698841, 40.016891891891895)"></path>
          </g>
        </g>
      </g>
      <g transform="translate(23.696404440154435, 0)">
        <g data-gra="path-name" fill="#FFFFFF" transform="translate(0,3)">
          <g transform="scale(0.8599999999999999)">
            <path
              d="M17.43-38.82L17.43-38.82L21.92-38.82Q25.36-38.82 26.53-35.66L26.53-35.66Q26.89-34.99 39.85-8.27L39.85-8.27Q40.68-6.74 40.68-5.69L40.68-5.69L40.68-5.41Q40.68-3.72 39.27-2.28L39.27-2.28Q38.55-1.55 36.44-0.94L36.44-0.94Q34.27-0.08 33.30-0.08L33.30-0.08L33.22-0.08Q30.86-0.08 29.42-2.39L29.42-2.39L20.45-21.70Q20.09-22.17 19.54-22.17L19.54-22.17L19.51-22.17Q18.73-22.17 18.45-21.31L18.45-21.31L15.98-15.01Q18.68-14.90 18.98-14.65L18.98-14.65Q19.70-14.43 20.45-13.74L20.45-13.74Q21.84-12.38 21.84-10.60L21.84-10.60Q21.73-7.35 21.45-7.16L21.45-7.16Q20.95-5.61 19.31-4.69L19.31-4.69Q18.20-4.22 17.37-4.22L17.37-4.22L11.85-4.50Q11.10-2.28 10.46-1.58L10.46-1.58Q9.07 0 7.16 0L7.16 0L7.02 0Q6.11 0 3.36-0.94L3.36-0.94Q1.91-1.61 1.22-3.05L1.22-3.05Q0.78-4.02 0.78-4.91L0.78-4.91L0.78-5.08Q0.78-6.08 1.80-8.30L1.80-8.30L12.38-34.55Q13.24-36.91 13.88-37.46L13.88-37.46Q15.12-38.82 17.43-38.82Z"
              transform="translate(-0.777027027027027, 40.016891891891895)"></path>
          </g>
        </g>
      </g>
      <g transform="translate(59.015468146718135, 0)">
        <g data-gra="path-name" fill="#FFFFFF" transform="translate(0,3)">
          <g transform="scale(0.8599999999999999)">
            <path
              d="M28.22-40.02L28.22-40.02Q30.36-40.02 31.83-38.13L31.83-38.13Q32.55-37.02 32.55-35.47L32.55-35.47Q32.69-34.69 32.69-34.11L32.69-34.11Q32.69-32.16 30.94-30.80L30.94-30.80Q29.80-29.97 28.22-29.97L28.22-29.97Q28.08-29.94 22.28-29.44L22.28-29.44Q21.28-29.22 20.73-28.61L20.73-28.61Q20.29-27.97 20.29-27.31L20.29-27.31L20.29-27.06Q20.29-25.34 22.20-23.14L22.20-23.14Q29.14-15.71 29.53-15.18L29.53-15.18Q30.64-13.54 30.64-11.57L30.64-11.57L30.64-11.27Q30.64-8.46 28.75-6.11L28.75-6.11Q27.06-4.55 26.09-4.16L26.09-4.16Q24.48-3.14 20.98-2.05L20.98-2.05Q18.09-1.19 12.15-0.36L12.15-0.36Q10.32-0.08 9.82-0.08L9.82-0.08L9.66-0.08Q7.58-0.08 6.19-1.80L6.19-1.80Q5.58-2.61 5.44-3.50L5.44-3.50Q5.05-5.36 5.05-5.97L5.05-5.97Q5.05-8.16 7.49-9.52L7.49-9.52Q8.52-9.93 9.38-9.93L9.38-9.93Q12.35-10.18 12.82-10.57L12.82-10.57Q14.13-11.32 14.13-12.49L14.13-12.49Q14.13-14.01 11.16-17.12L11.16-17.12Q6.77-22.09 6.30-22.67L6.30-22.67Q5.00-24.70 5.00-27.11L5.00-27.11L5.00-27.31Q5.00-30.66 7.33-33.58L7.33-33.58Q8.82-35.08 9.82-35.74L9.82-35.74Q11.07-36.60 11.99-37.02L11.99-37.02Q13.13-37.63 15.57-38.38L15.57-38.38Q17.18-38.88 21.31-39.46L21.31-39.46Q26.50-40.02 28.22-40.02Z"
              transform="translate(-4.995173745173745, 40.016891891891895)"></path>
          </g>
        </g>
      </g>
      <g transform="translate(83.83356660231658, 0)">
        <g data-gra="path-name" fill="#FFFFFF" transform="translate(0,3)">
          <g transform="scale(0.8599999999999999)">
            <path
              d="M29.53-39.60L29.53-39.60Q30.53-39.60 31.66-39.02L31.66-39.02Q33.91-37.69 33.91-34.72L33.91-34.72Q33.94-34.55 33.99-32.94L33.99-32.94Q33.99-31.14 32.33-29.64L32.33-29.64Q31.28-28.67 28.61-28.67L28.61-28.67Q26.67-28.67 26.42-28.31L26.42-28.31Q25.73-27.72 25.73-27.11L25.73-27.11Q26.95-4.94 26.95-4.50L26.95-4.50Q26.95-2.53 25.03-1.00L25.03-1.00Q23.84-0.19 21.92-0.19L21.92-0.19Q19.70 0 18.98 0L18.98 0Q16.73 0 15.26-2.30L15.26-2.30Q14.68-3.25 14.68-5.47L14.68-5.47Q13.57-25.67 13.51-26.45L13.51-26.45Q12.99-27.64 12.04-27.64L12.04-27.64L12.02-27.64L8.91-27.42L8.85-27.42Q6.60-27.42 5.16-29.58L5.16-29.58Q4.50-30.42 4.50-33.33L4.50-33.33Q4.47-33.58 4.47-34.30L4.47-34.30Q4.47-36.02 5.99-37.49L5.99-37.49Q6.94-38.24 7.85-38.41L7.85-38.41Q7.85-38.55 13.82-38.80L13.82-38.80Q14.01-38.82 29.53-39.60Z"
              transform="translate(-4.467905405405405, 40.016891891891895)"></path>
          </g>
        </g>
      </g>
      <g class="tp-graph" transform="translate(110.22680984555983, 0)">
        <rect data-gra="graph-name" fill="none" x="0" y="3.8143269419670105" width="33.41216216216216" height="0">
        </rect>
        <g data-gra="path-name" transform="translate(0.0005814320332291345,3)">
          <g transform="scale(0.8599999999999999)" fill="#FF00FF">
            <path
              d="M20.62-39.07L20.62-39.07L20.87-39.07Q27.83-39.07 33.58-34.24L33.58-34.24Q35.63-32.30 36.08-31.55L36.08-31.55Q40.18-26.17 40.18-19.54L40.18-19.54Q40.18-12.40 35.41-6.72L35.41-6.72Q33.61-4.77 32.80-4.19L32.80-4.19Q27.31 0 20.95 0L20.95 0L20.56 0Q13.90 0 8.30-4.52L8.30-4.52Q6.33-6.30 5.33-7.66L5.33-7.66Q1.33-13.10 1.33-19.40L1.33-19.40L1.33-19.70Q1.33-25.59 4.83-30.75L4.83-30.75Q5.41-31.66 7.13-33.50L7.13-33.50Q7.19-33.50 8.05-34.36L8.05-34.36L9.88-35.74Q14.93-39.07 20.62-39.07ZM13.04-19.54L13.04-19.54L13.04-19.23Q13.04-15.40 15.76-12.40L15.76-12.40Q18.29-9.93 21.34-9.93L21.34-9.93L21.62-9.93Q24.84-9.93 27.42-12.71L27.42-12.71Q29.89-15.62 29.89-19.40L29.89-19.40Q29.89-22.64 28.03-25.36L28.03-25.36Q26.31-27.72 23.56-28.58L23.56-28.58Q22.34-28.92 21.48-28.92L21.48-28.92Q17.71-28.92 15.01-25.50L15.01-25.50Q13.04-22.73 13.04-19.54Z"
              transform="translate(-1.332046332046332, 40.016891891891895)"></path>
          </g>
        </g>
      </g>
      <g transform="translate(144.63897200772197, 0)">
        <g data-gra="path-name" fill="#FFFFFF" transform="translate(0,3)">
          <g transform="scale(0.8599999999999999)">
            <path
              d="M20.62-39.07L20.62-39.07L20.87-39.07Q27.83-39.07 33.58-34.24L33.58-34.24Q35.63-32.30 36.08-31.55L36.08-31.55Q40.18-26.17 40.18-19.54L40.18-19.54Q40.18-12.40 35.41-6.72L35.41-6.72Q33.61-4.77 32.80-4.19L32.80-4.19Q27.31 0 20.95 0L20.95 0L20.56 0Q13.90 0 8.30-4.52L8.30-4.52Q6.33-6.30 5.33-7.66L5.33-7.66Q1.33-13.10 1.33-19.40L1.33-19.40L1.33-19.70Q1.33-25.59 4.83-30.75L4.83-30.75Q5.41-31.66 7.13-33.50L7.13-33.50Q7.19-33.50 8.05-34.36L8.05-34.36L9.88-35.74Q14.93-39.07 20.62-39.07ZM13.04-19.54L13.04-19.54L13.04-19.23Q13.04-15.40 15.76-12.40L15.76-12.40Q18.29-9.93 21.34-9.93L21.34-9.93L21.62-9.93Q24.84-9.93 27.42-12.71L27.42-12.71Q29.89-15.62 29.89-19.40L29.89-19.40Q29.89-22.64 28.03-25.36L28.03-25.36Q26.31-27.72 23.56-28.58L23.56-28.58Q22.34-28.92 21.48-28.92L21.48-28.92Q17.71-28.92 15.01-25.50L15.01-25.50Q13.04-22.73 13.04-19.54Z"
              transform="translate(-1.332046332046332, 40.016891891891895)"></path>
          </g>
        </g>
      </g>
      <g transform="translate(179.05113416988414, 0)">
        <g data-gra="path-name" fill="#FFFFFF" transform="translate(0,3)">
          <g transform="scale(0.8599999999999999)">
            <path
              d="M12.02-39.35L12.02-39.35Q16.35-39.13 16.35-38.93L16.35-38.93Q17.26-38.77 18.43-37.60L18.43-37.60Q19.51-36.27 19.51-34.77L19.51-34.77Q18.37-14.10 18.37-13.46L18.37-13.46Q18.37-12.57 19.43-12.07L19.43-12.07Q19.43-11.93 22.92-11.82L22.92-11.82Q27.28-11.60 27.28-11.38L27.28-11.38Q28.33-11.07 29.25-9.99L29.25-9.99Q30.22-8.77 30.22-7.47L30.22-7.47L30.22-7.41Q30.03-3.30 29.89-3.30L29.89-3.30Q29.39-1.64 28.22-0.83L28.22-0.83Q27.00 0 25.78 0L25.78 0Q9.71-0.64 9.71-0.72L9.71-0.72Q8.02-1.19 7.33-2.16L7.33-2.16Q6.24-3.39 6.24-4.88L6.24-4.88L7.58-32.44Q7.74-36.41 8.08-36.63L8.08-36.63Q8.66-38.13 10.32-38.96L10.32-38.96Q11.24-39.35 12.02-39.35Z"
              transform="translate(-6.243967181467181, 40.016891891891895)"></path>
          </g>
        </g>
      </g>
    </g>
    <g data-gra="path-slogan" fill-rule="" class="tp-slogan" fill="#FFFFFF"
      transform="translate(48.27733612060547,43.414528369903564)">
      <!---->
      <!---->
      <g transform="scale(1, 1)">
        <g transform="scale(1.6200000000000006)">
          <path
            d="M0.54-4.83L1.10-7.80L2.47-7.80Q2.20-6.81 2.20-6.80L2.20-6.80Q2.38-6.80 4.42-6.86L4.42-6.86L4.42-6.84L4.42-5.46L4.42-5.46Q4.27-5.46 4.22-5.46L4.22-5.46Q4.03-5.46 3.26-5.46L3.26-5.46Q3.15-4.36 3.12-4.14L3.12-4.14L4.60-4.07L4.60-3.05Q2.94-2.98 2.86-2.98L2.86-2.98Q2.85-2.96 2.77-2.56L2.77-2.56L3.72-2.56L4.60 0.04L4.60 0.76L3.11 0.76L2.74-2.36L2.73-2.36Q2.12 0.74 2.12 0.76L2.12 0.76L0.56 0.76L0.56 0.05Q0.56 0.04 1.38-2.51L1.38-2.51Q1.48-2.85 1.49-2.88L1.49-2.88Q1.43-2.88 0.66-2.84L0.66-2.84L0.66-4.28Q1.71-4.22 1.87-4.22L1.87-4.22L2.12-5.51L2.11-5.51Q1.90-5.51 1.82-5.51L1.82-5.51L1.80-5.52Q1.60-5.00 1.54-4.83L1.54-4.83L0.54-4.83ZM5.00-7.58L5.00-7.59Q9.54-7.41 9.88-7.39L9.88-7.39L9.89-7.38L9.89-6.21Q7.73-6.15 5.00-6.05L5.00-6.05L5.00-6.06L5.00-7.58ZM5.36-5.62L5.36-5.62L6.87-5.62L6.87-5.44L8.92-5.58Q9.53-4.75 9.53-4.75L9.53-4.75Q9.55-4.12 9.60-2.12L9.60-2.12Q9.57-2.13 9.56-2.13L9.56-2.13Q9.20-2.13 7.09-2.16L7.09-2.16L7.08-2.16L7.08-3.37L7.09-3.38Q7.24-3.36 7.99-3.31L7.99-3.31Q7.99-3.32 7.99-3.33L7.99-3.33Q7.99-3.36 8.08-4.32L8.08-4.32L6.87-4.35L6.87-4.34Q6.87-4.34 6.86-4.27L6.86-4.27L6.83-2.17Q6.83-2.16 6.83-2.16L6.83-2.16Q6.80-2.16 6.80-2.16L6.80-2.16Q6.36-2.16 5.29-2.17L5.29-2.17Q5.36-5.50 5.36-5.62ZM5.72-0.63L5.37-1.69L6.90-1.69L7.17-0.56Q7.65-0.54 7.73-0.54L7.73-0.54Q7.73-0.53 7.73-0.53L7.73-0.53Q7.97-1.55 8.00-1.69L8.00-1.69L9.51-1.69L9.51-1.69Q9.11-0.49 9.11-0.47L9.11-0.47L9.12-0.47L10.00-0.44L10.00 0.76L4.90 0.76L4.89-0.65Q5.63-0.63 5.72-0.63L5.72-0.63L5.72-0.63ZM18.09-6.44L18.18-7.95L19.73-7.95Q19.99-1.61 20.03-0.33L20.03-0.33Q20.04-0.10 20.08 0.76L20.08 0.76L16.67 0.76L16.67-0.66Q17.58-0.57 17.77-0.55L17.77-0.55L17.77-0.56L18.09-6.44ZM15.40-5.92L16.78-5.92L16.78-5.92Q16.75-5.77 15.98-1.40L15.98-1.40L15.97-1.39L14.10-1.39L14.09-1.40Q15.36-5.77 15.40-5.92L15.40-5.92ZM20.86-5.92L20.86-5.92L22.24-5.92L23.55-1.40L23.54-1.39L21.66-1.39Q20.89-5.71 20.86-5.92ZM27.97-6.18L27.97-7.69Q28.01-7.69 28.01-7.69L28.01-7.69Q28.14-7.69 34.20-7.59L34.20-7.59Q34.43-7.59 36.77-7.55L36.77-7.55L36.77-6.35Q36.61-6.35 33.17-6.29L33.17-6.29L32.84-5.36L35.53-5.36Q35.55-5.36 35.74-5.19L35.74-5.19Q35.81-5.15 36.55-4.54L36.55-4.54Q36.75 0.47 36.76 0.74L36.76 0.74Q36.76 0.76 36.76 0.76L36.76 0.76L34.49 0.76L34.49-0.36Q34.60-0.34 34.92-0.30L34.92-0.30Q34.92-0.56 35.06-3.95L35.06-3.95Q34.97-3.95 34.18-3.96L34.18-3.96L34.18-3.96Q34.18-3.72 34.32 0.35L34.32 0.35L32.67 0.35Q32.67 0.26 32.78-3.99L32.78-3.99Q32.71-3.99 32.03-4.00L32.03-4.00Q32.17 0.29 32.17 0.35L32.17 0.35L30.50 0.35L30.66-4.03Q30.30-4.03 29.87-4.04L29.87-4.04Q29.88-3.90 29.97 0.76L29.97 0.76L28.01 0.76Q28.01 0.70 28.25-5.29L28.25-5.29L28.25-5.34L28.27-5.35L31.27-5.35Q31.28-5.35 31.38-5.83L31.38-5.83Q31.39-5.88 31.48-6.25L31.48-6.25Q31.48-6.25 31.42-6.24L31.42-6.24L27.97-6.18ZM42.54-5.13L42.63-8.15L43.65-8.15Q43.65-8.04 43.76-5.07L43.76-5.07L45.15-5.01L45.15-3.94L43.80-3.88Q43.80-3.69 43.94 0.73L43.94 0.73L43.93 0.73L42.39 0.73Q42.51-3.66 42.51-3.81L42.51-3.81L42.50-3.81Q41.25-3.75 41.18-3.75L41.18-3.75L41.18-5.19L42.54-5.13ZM47.11-7.96L47.11-7.96L48.84-7.96Q48.83-7.51 48.83-7.43L48.83-7.43Q48.82-7.42 48.82-7.41L48.82-7.41L48.83-7.41Q48.96-7.41 50.54-7.36L50.54-7.36L50.54-6.44L48.79-6.44L48.79-6.13Q50.13-6.12 50.29-6.11L50.29-6.11L50.29-5.12L50.28-5.12L48.74-5.14Q48.74-4.93 48.74-4.86L48.74-4.86Q48.73-4.85 48.73-4.85L48.73-4.85Q50.54-4.78 50.64-4.78L50.64-4.78L50.64-3.80Q46.37-3.81 45.33-3.81L45.33-3.81L45.33-4.97Q45.40-4.97 47.20-4.90L47.20-4.90Q47.19-4.93 47.19-5.17L47.19-5.17Q47.13-5.18 47.13-5.18L47.13-5.18Q46.99-5.18 45.80-5.20L45.80-5.20L45.80-6.18Q45.84-6.17 45.84-6.17L45.84-6.17Q46.01-6.17 47.16-6.15L47.16-6.15Q47.15-6.40 47.14-6.44L47.14-6.44L45.43-6.44L45.43-7.52L47.13-7.46L47.13-7.48Q47.13-7.54 47.11-7.96ZM41.18-7.52L41.18-7.52L42.20-7.52Q42.37-5.68 42.38-5.54L42.38-5.54L42.38-5.53L41.54-5.53Q41.53-5.53 41.48-5.87L41.48-5.87Q41.47-5.90 41.18-7.52ZM43.95-5.53L44.13-7.52L45.15-7.52L44.79-5.53L43.95-5.53ZM45.45 0.75L45.71-3.65L47.21-3.65L47.21-3.50Q49.45-3.61 49.63-3.62L49.63-3.62Q50.37-3.04 50.44-2.99L50.44-2.99Q50.44-2.81 50.61 0.76L50.61 0.76Q48.60 0.74 48.23 0.74L48.23 0.74Q48.23 0.74 48.15 0.74L48.15 0.74L48.15-0.12L48.90-0.03L48.90-0.04L48.91-0.38Q47.34-0.46 47.28-0.46L47.28-0.46Q47.27-0.47 47.26-0.47L47.26-0.47L47.26-0.46Q47.26-0.33 47.29 0.75L47.29 0.75L45.45 0.75ZM41.68-3.38L41.68-3.38L42.32-3.38L42.33-3.38L42.11 0.73L41.18 0.73L41.18-0.45Q41.18-0.49 41.50-2.36L41.50-2.36Q41.67-3.26 41.68-3.38ZM43.99-3.38L43.99-3.38L44.64-3.38Q44.65-3.38 44.71-3.03L44.71-3.03Q45.15-0.50 45.15-0.44L45.15-0.44L45.15 0.73L44.23 0.73Q44.22 0.69 43.99-3.38ZM47.21-2.50L47.21-2.50L47.21-2.20L48.98-2.13L48.99-2.53Q48.81-2.52 47.21-2.50ZM48.94-1.52L47.23-1.42Q47.24-1.12 47.24-1.05L47.24-1.05L48.94-1.17Q48.95-1.46 48.95-1.52L48.95-1.52L48.94-1.52ZM56.16-8.09L56.17-8.10L57.38-8.10Q57.40-6.70 57.40-6.42L57.40-6.42L58.06-6.42L58.68-4.92L57.63-4.92Q57.62-4.92 57.41-5.57L57.41-5.57L57.40-5.57L57.40-5.55Q57.44-4.96 57.76 0.76L57.76 0.76L55.85 0.76Q55.85 0.70 56.04-4.77L56.04-4.77Q56.15-7.63 56.16-8.09L56.16-8.09ZM58.86-7.95L58.86-7.95L60.35-7.95L60.35-7.76Q60.35-7.76 60.37-7.77L60.37-7.77L62.88-7.90Q63.70-7.29 63.71-7.29L63.71-7.29Q63.76-4.51 63.76-4.27L63.76-4.27Q63.43-4.27 60.64-4.28L60.64-4.28L60.64-5.29Q60.67-5.30 60.67-5.30L60.67-5.30L62.16-5.32Q62.16-5.33 62.16-5.33L62.16-5.33Q62.16-5.36 62.17-5.59L62.17-5.59L62.16-5.59Q62.09-5.59 60.38-5.64L60.38-5.64L60.38-4.46Q60.38-4.40 60.39-4.29L60.39-4.29Q60.38-4.29 60.38-4.28L60.38-4.28Q59.98-4.29 59.75-4.29L59.75-4.29L58.85-4.29Q58.82-4.29 58.77-4.29L58.77-4.29L58.86-7.89Q58.86-7.94 58.86-7.95ZM62.21-6.81L60.35-6.81L60.35-6.45L62.19-6.49L62.21-6.81ZM55.16-5.40L55.16-5.40L55.94-5.40L55.73-2.74L55.72-2.73L54.73-2.73Q54.76-2.95 55.16-5.40ZM58.70-4.07L58.71-4.08Q58.71-4.08 58.73-4.07L58.73-4.07Q58.93-4.07 63.83-3.95L63.83-3.95L63.83-2.81L63.81-2.80Q63.62-2.80 61.97-2.77L61.97-2.77Q62.01-2.20 62.01-2.13L62.01-2.13Q62.02-2.12 62.02-2.12L62.02-2.12Q62.02-2.12 62.07-2.12L62.07-2.12L64.17-2.17L64.19-2.18L64.19-0.73Q62.67-0.74 62.23-0.74L62.23-0.74Q62.20-0.74 62.10-0.74L62.10-0.74Q62.10-0.64 62.17 0.76L62.17 0.76L60.33 0.76L60.41-0.74Q60.42-0.76 60.42-0.76L60.42-0.76Q60.21-0.77 58.34-0.79L58.34-0.79L58.34-2.00Q58.44-2.00 60.47-2.06L60.47-2.06Q60.50-2.65 60.50-2.73L60.50-2.73L58.70-2.71L58.70-4.07Z"
            transform="translate(-0.5390625, 8.150390625)"></path>
        </g>
      </g>
    </g>
  </g>
  <defs v-gra="od"></defs>
</svg>